<svg width="1440" height="606" viewBox="0 0 1440 606" fill="none" xmlns="http://www.w3.org/2000/svg">
<path d="M-59 522.123L-57.81 521.963C-55.01 542.703 -45.68 561.513 -30.84 576.353C-7.85 599.343 24.87 608.933 56.68 601.993L56.94 603.173C24.73 610.203 -8.4 600.493 -31.68 577.213C-46.72 562.173 -56.16 543.123 -59 522.123Z" fill="#25D04E"/>
<path d="M-31.69 441.132C5.81996 403.623 66.86 403.623 104.37 441.132C141.88 478.643 141.88 539.682 104.37 577.192L103.52 576.342C140.56 539.302 140.56 479.023 103.52 441.983C66.48 404.943 6.19997 404.943 -30.84 441.983C-42.03 453.173 -50.31 467.062 -54.76 482.142L-55.91 481.802C-51.4 466.532 -43.03 452.472 -31.69 441.132Z" fill="#25D04E"/>
<path d="M16.17 424.602C45.79 417.562 76.31 426.203 97.81 447.703L96.11 449.402C75.21 428.502 45.53 420.102 16.73 426.942L16.17 424.602Z" fill="#25D04E"/>
<path d="M-13.11 577.722C2.97996 589.362 22.81 594.942 42.73 593.442C62.86 591.922 81.81 583.222 96.1 568.932C107.63 557.402 115.54 542.912 118.95 527.032C122.93 508.532 120.57 489.012 112.3 472.072L114.46 471.012C122.97 488.432 125.4 508.502 121.3 527.532C117.79 543.862 109.66 558.762 97.79 570.622C83.09 585.322 63.6 594.272 42.89 595.832C22.41 597.372 2.00996 591.632 -14.54 579.662L-13.11 577.722Z" fill="#25D04E"/>
<path d="M-8.04995 464.772C16.43 440.292 56.2601 440.292 80.7401 464.772C90.6501 474.682 96.83 487.242 98.61 501.102L96.22 501.412C94.5 488.082 88.56 476.012 79.03 466.482C55.49 442.942 17.1901 442.942 -6.34995 466.482C-10.5299 470.662 -14.05 475.392 -16.83 480.542L-18.95 479.402C-16.06 474.032 -12.3999 469.122 -8.04995 464.772Z" fill="#25D04E"/>
<path d="M-26.38 506.412L-23.97 506.512C-24.71 523.392 -18.28 539.912 -6.35001 551.852C2.05999 560.262 12.63 565.952 24.23 568.312L23.75 570.672C11.69 568.212 0.689985 562.292 -8.05001 553.552C-20.47 541.142 -27.15 523.962 -26.38 506.412Z" fill="#25D04E"/>
<path d="M43.2 569.153C56.88 567.593 69.27 561.613 79.03 551.863C87.58 543.313 93.32 532.533 95.61 520.703L97.97 521.163C95.59 533.463 89.63 544.673 80.7299 553.563C70.58 563.713 57.7 569.923 43.47 571.543L43.2 569.153Z" fill="#25D04E"/>
<path d="M-0.430033 472.403C5.54997 466.423 12.95 461.953 20.97 459.483L21.32 460.633C13.48 463.053 6.24997 467.413 0.409967 473.253C-15.71 489.373 -19.11 514.453 -7.86003 534.243L-8.91003 534.833C-20.41 514.573 -16.93 488.903 -0.430033 472.403Z" fill="#25D04E"/>
<path d="M36.33 457.172C50.22 457.172 63.28 462.582 73.11 472.402C93.38 492.672 93.38 525.662 73.11 545.932C52.84 566.202 19.85 566.202 -0.420044 545.932L0.429955 545.082C20.23 564.882 52.4599 564.882 72.2599 545.082C92.06 525.282 92.06 493.052 72.2599 473.252C62.66 463.652 49.91 458.372 36.34 458.372V457.172H36.33Z" fill="#25D04E"/>
<path d="M13.47 486.302C26.08 473.692 46.6 473.692 59.21 486.302C71.82 498.912 71.82 519.432 59.21 532.042L57.51 530.342C69.18 518.672 69.18 499.682 57.51 488.002C45.84 476.332 26.85 476.332 15.18 488.002C3.51004 499.672 3.51004 518.662 15.18 530.332L13.48 532.032C0.860045 519.422 0.860044 498.912 13.47 486.302Z" fill="#25D04E"/>
<path d="M24.97 497.802C31.24 491.532 41.44 491.532 47.7 497.802L46.85 498.652C41.05 492.852 31.62 492.852 25.82 498.652C20.02 504.452 20.02 513.882 25.82 519.682C31.62 525.482 41.05 525.482 46.85 519.682C50.07 516.462 51.62 512.022 51.11 507.492L52.31 507.352C52.86 512.242 51.18 517.052 47.7 520.532C41.43 526.802 31.23 526.802 24.97 520.532C18.71 514.262 18.71 504.072 24.97 497.802Z" fill="#25D04E"/>
<path d="M1308 109.123L1309.19 108.963C1311.99 129.703 1321.32 148.513 1336.16 163.353C1359.15 186.343 1391.87 195.933 1423.68 188.993L1423.94 190.173C1391.73 197.203 1358.6 187.493 1335.32 164.213C1320.28 149.173 1310.84 130.123 1308 109.123Z" fill="#25D04E"/>
<path d="M1335.31 28.1325C1372.82 -9.3775 1433.86 -9.3775 1471.37 28.1325C1508.88 65.6425 1508.88 126.682 1471.37 164.192L1470.52 163.342C1507.56 126.302 1507.56 66.0225 1470.52 28.9825C1433.48 -8.0575 1373.2 -8.0575 1336.16 28.9825C1324.97 40.1725 1316.69 54.0625 1312.24 69.1425L1311.09 68.8025C1315.6 53.5325 1323.97 39.4725 1335.31 28.1325Z" fill="#25D04E"/>
<path d="M1383.17 11.6025C1412.79 4.5625 1443.31 13.2025 1464.81 34.7025L1463.11 36.4025C1442.21 15.5025 1412.53 7.10249 1383.73 13.9425L1383.17 11.6025Z" fill="#25D04E"/>
<path d="M1341.88 34.7024C1348.62 27.9624 1356.32 22.4224 1364.79 18.2324L1365.86 20.3924C1357.63 24.4624 1350.14 29.8524 1343.59 36.4024C1312.8 67.1924 1310.31 115.812 1337.79 149.502L1335.93 151.022C1307.65 116.382 1310.21 66.3724 1341.88 34.7024Z" fill="#25D04E"/>
<path d="M1353.89 164.722C1369.98 176.362 1389.81 181.942 1409.73 180.442C1429.86 178.922 1448.81 170.222 1463.1 155.932C1474.63 144.402 1482.54 129.912 1485.95 114.032C1489.93 95.5324 1487.57 76.0124 1479.3 59.0724L1481.46 58.0125C1489.97 75.4325 1492.4 95.5024 1488.3 114.532C1484.79 130.862 1476.66 145.762 1464.79 157.622C1450.09 172.322 1430.6 181.272 1409.89 182.832C1389.41 184.372 1369.01 178.632 1352.46 166.662L1353.89 164.722Z" fill="#25D04E"/>
<path d="M1358.95 51.7726C1383.43 27.2926 1423.26 27.2926 1447.74 51.7726C1457.65 61.6826 1463.83 74.2426 1465.61 88.1026L1463.22 88.4126C1461.5 75.0826 1455.56 63.0126 1446.03 53.4826C1422.49 29.9426 1384.19 29.9426 1360.65 53.4826C1356.47 57.6626 1352.95 62.3926 1350.17 67.5426L1348.05 66.4026C1350.94 61.0326 1354.6 56.1226 1358.95 51.7726Z" fill="#25D04E"/>
<path d="M1340.62 93.4125L1343.03 93.5125C1342.29 110.392 1348.72 126.912 1360.65 138.852C1369.06 147.262 1379.63 152.952 1391.23 155.312L1390.75 157.672C1378.69 155.212 1367.69 149.292 1358.95 140.552C1346.53 128.142 1339.85 110.962 1340.62 93.4125Z" fill="#25D04E"/>
<path d="M1410.2 156.153C1423.88 154.593 1436.27 148.613 1446.03 138.863C1454.58 130.313 1460.32 119.533 1462.61 107.703L1464.97 108.163C1462.59 120.463 1456.63 131.673 1447.73 140.563C1437.58 150.713 1424.7 156.923 1410.47 158.543L1410.2 156.153Z" fill="#25D04E"/>
<path d="M1366.57 59.4024C1372.55 53.4224 1379.95 48.9524 1387.97 46.4824L1388.32 47.6324C1380.48 50.0524 1373.25 54.4124 1367.41 60.2524C1351.29 76.3724 1347.89 101.452 1359.14 121.242L1358.09 121.832C1346.59 101.572 1350.07 75.9024 1366.57 59.4024Z" fill="#25D04E"/>
<path d="M1403.33 44.1726C1417.22 44.1726 1430.28 49.5826 1440.11 59.4026C1460.38 79.6726 1460.38 112.663 1440.11 132.933C1419.84 153.203 1386.85 153.203 1366.58 132.933L1367.43 132.083C1387.23 151.883 1419.46 151.883 1439.26 132.083C1459.06 112.283 1459.06 80.0526 1439.26 60.2526C1429.66 50.6526 1416.91 45.3726 1403.34 45.3726V44.1726H1403.33Z" fill="#25D04E"/>
<path d="M1380.47 73.3025C1393.08 60.6925 1413.6 60.6925 1426.21 73.3025C1438.82 85.9125 1438.82 106.432 1426.21 119.042L1424.51 117.342C1436.18 105.672 1436.18 86.6825 1424.51 75.0025C1412.84 63.3325 1393.85 63.3325 1382.18 75.0025C1370.51 86.6725 1370.51 105.662 1382.18 117.332L1380.48 119.032C1367.86 106.422 1367.86 85.9125 1380.47 73.3025Z" fill="#25D04E"/>
<path d="M1391.97 84.8025C1398.24 78.5325 1408.44 78.5325 1414.7 84.8025L1413.85 85.6525C1408.05 79.8525 1398.62 79.8525 1392.82 85.6525C1387.02 91.4525 1387.02 100.882 1392.82 106.682C1398.62 112.482 1408.05 112.482 1413.85 106.682C1417.07 103.462 1418.62 99.0225 1418.11 94.4925L1419.31 94.3525C1419.86 99.2425 1418.18 104.052 1414.7 107.532C1408.43 113.802 1398.23 113.802 1391.97 107.532C1385.71 101.262 1385.71 91.0725 1391.97 84.8025Z" fill="#25D04E"/>
<path d="M707.74 66.37C707.74 69.34 705.34 71.74 702.37 71.74C699.4 71.74 697 69.34 697 66.37C697 63.4 699.4 61 702.37 61C705.34 61 707.74 63.41 707.74 66.37Z" fill="#25D04E"/>
<path d="M53.74 61.37C53.74 64.34 51.34 66.74 48.37 66.74C45.4 66.74 43 64.34 43 61.37C43 58.4 45.4 56 48.37 56C51.34 56 53.74 58.41 53.74 61.37Z" fill="#25D04E"/>
<path d="M468.74 352.37C468.74 355.34 466.34 357.74 463.37 357.74C460.4 357.74 458 355.34 458 352.37C458 349.4 460.4 347 463.37 347C466.34 347 468.74 349.41 468.74 352.37Z" fill="#25D04E"/>
<path d="M1259.74 352.37C1259.74 355.34 1257.34 357.74 1254.37 357.74C1251.4 357.74 1249 355.34 1249 352.37C1249 349.4 1251.4 347 1254.37 347C1257.34 347 1259.74 349.41 1259.74 352.37Z" fill="#25D04E"/>
<path opacity="0.49" d="M990 430.826C992.42 428.406 996.66 432.646 999.08 430.226C1001.5 427.806 997.26 423.566 999.68 421.146C1002.1 418.726 1006.34 422.966 1008.76 420.546C1011.18 418.126 1006.94 413.886 1009.35 411.466C1011.77 409.046 1016.01 413.286 1018.43 410.866C1020.85 408.446 1016.61 404.206 1019.03 401.776C1021.45 399.356 1025.69 403.596 1028.12 401.176" stroke="#25D04E" stroke-width="2" stroke-miterlimit="10" stroke-linecap="round" stroke-linejoin="round"/>
<path opacity="0.49" d="M450 125.826C452.42 123.406 456.66 127.646 459.08 125.226C461.5 122.806 457.26 118.566 459.68 116.146C462.1 113.726 466.34 117.966 468.76 115.546C471.18 113.126 466.94 108.886 469.35 106.466C471.77 104.046 476.01 108.286 478.43 105.866C480.85 103.446 476.61 99.2057 479.03 96.7757C481.45 94.3557 485.69 98.5957 488.12 96.1757" stroke="#25D04E" stroke-width="2" stroke-miterlimit="10" stroke-linecap="round" stroke-linejoin="round"/>
<path opacity="0.49" d="M1080 87.8257C1082.42 85.4057 1086.66 89.6457 1089.08 87.2257C1091.5 84.8057 1087.26 80.5657 1089.68 78.1457C1092.1 75.7257 1096.34 79.9657 1098.76 77.5457C1101.18 75.1257 1096.94 70.8857 1099.35 68.4657C1101.77 66.0457 1106.01 70.2857 1108.43 67.8657C1110.85 65.4457 1106.61 61.2057 1109.03 58.7757C1111.45 56.3557 1115.69 60.5957 1118.12 58.1757" stroke="#25D04E" stroke-width="2" stroke-miterlimit="10" stroke-linecap="round" stroke-linejoin="round"/>
<path d="M211.59 325.833C210.47 325.833 209.66 326.643 209.66 327.753C209.66 328.873 210.47 329.683 211.58 329.683C212.7 329.683 213.5 328.873 213.51 327.763C213.51 326.643 212.71 325.833 211.59 325.833Z" fill="#080924"/>
<path d="M230.85 325.833C229.73 325.813 228.89 326.603 228.87 327.713C228.85 328.833 229.65 329.673 230.75 329.693C231.87 329.713 232.7 328.923 232.72 327.813C232.75 326.683 231.96 325.853 230.85 325.833Z" fill="#080924"/>
<path d="M250.04 325.833C248.92 325.823 248.1 326.633 248.09 327.743C248.08 328.863 248.89 329.683 250 329.693C251.12 329.703 251.93 328.903 251.94 327.783C251.95 326.653 251.16 325.843 250.04 325.833Z" fill="#080924"/>
<path d="M163.53 339.303C164.65 339.303 165.46 338.503 165.46 337.383C165.46 336.263 164.66 335.453 163.54 335.453C162.42 335.453 161.61 336.263 161.61 337.373C161.6 338.483 162.42 339.293 163.53 339.303Z" fill="#080924"/>
<path d="M182.72 339.303C183.84 339.313 184.66 338.523 184.68 337.403C184.69 336.273 183.9 335.453 182.79 335.443C181.67 335.433 180.84 336.223 180.83 337.333C180.81 338.453 181.62 339.283 182.72 339.303Z" fill="#080924"/>
<path d="M201.95 335.443C200.84 335.453 200.03 336.273 200.04 337.393C200.05 338.503 200.88 339.313 201.99 339.303C203.11 339.293 203.9 338.473 203.89 337.353C203.89 336.233 203.07 335.433 201.95 335.443Z" fill="#080924"/>
<path d="M221.27 335.443C220.15 335.413 219.3 336.193 219.26 337.293C219.23 338.413 220.01 339.263 221.11 339.303C222.23 339.333 223.08 338.553 223.11 337.453C223.15 336.313 222.38 335.473 221.27 335.443Z" fill="#080924"/>
<path d="M240.45 335.443C239.33 335.433 238.5 336.233 238.49 337.333C238.48 338.453 239.28 339.283 240.39 339.293C241.51 339.303 242.33 338.503 242.34 337.393C242.35 336.273 241.56 335.453 240.45 335.443Z" fill="#080924"/>
<path d="M173.15 348.913C174.27 348.903 175.07 348.093 175.06 346.973C175.06 345.853 174.25 345.053 173.13 345.053C172.01 345.053 171.21 345.873 171.21 346.993C171.22 348.103 172.04 348.913 173.15 348.913Z" fill="#080924"/>
<path d="M190.44 346.843C190.38 347.973 191.14 348.843 192.23 348.913C193.35 348.973 194.23 348.213 194.29 347.123C194.35 345.993 193.6 345.123 192.51 345.063C191.37 344.993 190.5 345.753 190.44 346.843Z" fill="#080924"/>
<path d="M211.66 345.053C210.54 345.023 209.69 345.793 209.66 346.903C209.63 348.023 210.41 348.873 211.51 348.913C212.63 348.943 213.48 348.163 213.51 347.063C213.54 345.923 212.77 345.083 211.66 345.053Z" fill="#080924"/>
<path d="M230.77 345.053C229.66 345.063 228.86 345.893 228.88 347.013C228.89 348.123 229.72 348.923 230.84 348.913C231.95 348.893 232.74 348.073 232.73 346.953C232.71 345.833 231.89 345.043 230.77 345.053Z" fill="#080924"/>
<path d="M182.75 358.523C183.87 358.523 184.67 357.723 184.68 356.603C184.68 355.483 183.88 354.673 182.76 354.673C181.64 354.673 180.83 355.483 180.83 356.593C180.83 357.703 181.64 358.523 182.75 358.523Z" fill="#080924"/>
<path d="M201.93 354.663C200.82 354.683 200.02 355.513 200.04 356.633C200.06 357.743 200.89 358.543 202.01 358.523C203.12 358.503 203.91 357.683 203.89 356.553C203.88 355.433 203.06 354.643 201.93 354.663Z" fill="#080924"/>
<path d="M221.23 354.663C220.11 354.653 219.28 355.453 219.27 356.553C219.26 357.673 220.06 358.503 221.17 358.513C222.29 358.523 223.11 357.733 223.12 356.613C223.13 355.493 222.34 354.673 221.23 354.663Z" fill="#080924"/>
<path d="M192.29 368.133C193.41 368.163 194.26 367.383 194.29 366.283C194.32 365.153 193.55 364.313 192.45 364.283C191.33 364.253 190.48 365.033 190.44 366.133C190.4 367.243 191.19 368.093 192.29 368.133Z" fill="#080924"/>
<path d="M211.63 364.273C210.51 364.253 209.67 365.043 209.65 366.153C209.63 367.273 210.43 368.113 211.53 368.133C212.65 368.153 213.48 367.363 213.5 366.253C213.53 365.123 212.74 364.293 211.63 364.273Z" fill="#080924"/>
<path d="M201.94 373.883C200.83 373.903 200.03 374.723 200.05 375.843C200.07 376.953 200.9 377.753 202.01 377.733C203.12 377.713 203.91 376.893 203.9 375.773C203.88 374.663 203.06 373.863 201.94 373.883Z" fill="#080924"/>
<path d="M182.76 300.863C183.88 300.863 184.68 300.053 184.68 298.923C184.68 297.803 183.87 297.003 182.75 297.003C181.63 297.003 180.82 297.823 180.83 298.933C180.83 300.053 181.65 300.863 182.76 300.863Z" fill="#080924"/>
<path d="M203.89 299.063C203.95 297.933 203.2 297.063 202.11 297.003C200.98 296.943 200.11 297.703 200.05 298.793C199.99 299.913 200.75 300.793 201.84 300.853C202.96 300.923 203.84 300.153 203.89 299.063Z" fill="#080924"/>
<path d="M221.23 297.003C220.11 296.993 219.28 297.793 219.27 298.893C219.26 300.013 220.06 300.843 221.17 300.853C222.29 300.863 223.11 300.073 223.12 298.953C223.13 297.833 222.34 297.023 221.23 297.003Z" fill="#080924"/>
<path d="M173.18 310.473C174.29 310.453 175.08 309.633 175.07 308.513C175.06 307.403 174.24 306.603 173.11 306.623C172 306.643 171.2 307.463 171.22 308.583C171.23 309.683 172.06 310.483 173.18 310.473Z" fill="#080924"/>
<path d="M192.4 306.613C191.28 306.603 190.46 307.393 190.44 308.503C190.43 309.623 191.22 310.453 192.33 310.463C193.45 310.473 194.27 309.683 194.29 308.563C194.3 307.453 193.51 306.633 192.4 306.613Z" fill="#080924"/>
<path d="M211.6 306.613C210.48 306.603 209.66 307.403 209.66 308.523C209.65 309.643 210.46 310.463 211.57 310.473C212.69 310.483 213.5 309.673 213.51 308.563C213.51 307.433 212.72 306.623 211.6 306.613Z" fill="#080924"/>
<path d="M230.8 306.613C229.68 306.613 228.88 307.423 228.88 308.543C228.88 309.663 229.7 310.473 230.81 310.463C231.93 310.463 232.73 309.653 232.73 308.523C232.72 307.413 231.92 306.613 230.8 306.613Z" fill="#080924"/>
<path d="M163.51 320.083C164.63 320.093 165.44 319.293 165.45 318.173C165.46 317.053 164.66 316.233 163.55 316.223C162.43 316.213 161.61 317.023 161.6 318.133C161.6 319.243 162.41 320.073 163.51 320.083Z" fill="#080924"/>
<path d="M182.73 320.083C183.85 320.093 184.66 319.293 184.67 318.173C184.68 317.053 183.88 316.233 182.77 316.223C181.65 316.213 180.83 317.023 180.82 318.133C180.82 319.243 181.63 320.073 182.73 320.083Z" fill="#080924"/>
<path d="M202.05 316.223C200.93 316.193 200.08 316.973 200.04 318.073C200.01 319.193 200.79 320.043 201.89 320.083C203.01 320.123 203.86 319.333 203.89 318.233C203.93 317.093 203.16 316.263 202.05 316.223Z" fill="#080924"/>
<path d="M221.2 316.223C220.08 316.223 219.27 317.033 219.27 318.143C219.27 319.263 220.08 320.073 221.19 320.083C222.31 320.083 223.12 319.283 223.12 318.163C223.12 317.033 222.32 316.223 221.2 316.223Z" fill="#080924"/>
<path d="M240.43 316.223C239.31 316.213 238.49 317.023 238.48 318.133C238.47 319.253 239.28 320.073 240.39 320.083C241.51 320.093 242.32 319.283 242.33 318.173C242.34 317.043 241.55 316.233 240.43 316.223Z" fill="#080924"/>
<path d="M153.91 329.693C155.03 329.703 155.84 328.893 155.85 327.783C155.86 326.663 155.06 325.843 153.95 325.843C152.83 325.833 152.01 326.643 152 327.753C151.99 328.853 152.8 329.683 153.91 329.693Z" fill="#080924"/>
<path d="M173.07 329.693C174.19 329.733 175.04 328.943 175.07 327.843C175.1 326.713 174.33 325.873 173.23 325.833C172.11 325.803 171.26 326.583 171.22 327.683C171.18 328.803 171.97 329.653 173.07 329.693Z" fill="#080924"/>
<path d="M192.39 325.833C191.27 325.823 190.44 326.623 190.43 327.733C190.42 328.853 191.22 329.683 192.33 329.693C193.45 329.703 194.27 328.903 194.28 327.793C194.3 326.663 193.51 325.843 192.39 325.833Z" fill="#080924"/>
<path d="M851.87 577L835.43 593.36L818.98 577L802.54 593.36L786.1 577L771.6 591.43L757.09 577L740.65 593.36L724.2 577L707.76 593.36L691.32 577L675 593.24L676.82 595.06L691.32 580.63L707.76 596.99L724.2 580.63L740.65 596.99L757.09 580.63L771.6 595.07L786.1 580.63L802.54 596.99L818.98 580.63L835.43 596.99L851.87 580.63L866.38 595.06L868.19 593.24L851.87 577Z" fill="#25D04E"/>
</svg>
