<svg width="1440" height="492" viewBox="0 0 1440 492" fill="none" xmlns="http://www.w3.org/2000/svg">
<path d="M662.23 261L645.79 277.36L629.34 261L612.9 277.36L596.46 261L580 277.39L581.89 279.13L596.46 264.62L612.9 280.98L629.34 264.62L645.79 280.98L662.23 264.62L676.74 279.05L678.55 277.23L662.23 261Z" fill="#25D04E"/>
<path d="M259.23 123L242.79 139.36L226.34 123L209.9 139.36L193.46 123L177 139.39L178.89 141.13L193.46 126.62L209.9 142.98L226.34 126.62L242.79 142.98L259.23 126.62L273.74 141.05L275.55 139.23L259.23 123Z" fill="#25D04E"/>
<path d="M201.23 411L184.79 427.36L168.34 411L151.9 427.36L135.46 411L119 427.39L120.89 429.13L135.46 414.62L151.9 430.98L168.34 414.62L184.79 430.98L201.23 414.62L215.74 429.05L217.55 427.23L201.23 411Z" fill="#25D04E"/>
<path d="M1102.23 418L1085.79 434.36L1069.34 418L1052.9 434.36L1036.46 418L1020 434.39L1021.89 436.13L1036.46 421.62L1052.9 437.98L1069.34 421.62L1085.79 437.98L1102.23 421.62L1116.74 436.05L1118.55 434.23L1102.23 418Z" fill="#25D04E"/>
<path d="M-73 109.123L-71.81 108.962C-69.01 129.702 -59.68 148.513 -44.84 163.353C-21.85 186.343 10.87 195.933 42.68 188.993L42.94 190.173C10.73 197.203 -22.4 187.492 -45.68 164.212C-60.72 149.172 -70.16 130.123 -73 109.123Z" fill="#25D04E"/>
<path d="M-45.69 28.1325C-8.18004 -9.3775 52.86 -9.3775 90.37 28.1325C127.88 65.6425 127.88 126.682 90.37 164.192L89.52 163.342C126.56 126.302 126.56 66.0225 89.52 28.9825C52.48 -8.0575 -7.80003 -8.0575 -44.84 28.9825C-56.03 40.1725 -64.31 54.0625 -68.76 69.1425L-69.91 68.8025C-65.4 53.5325 -57.03 39.4725 -45.69 28.1325Z" fill="#25D04E"/>
<path d="M2.17004 11.6025C31.79 4.5625 62.31 13.2025 83.81 34.7025L82.11 36.4025C61.21 15.5025 31.53 7.10249 2.73005 13.9425L2.17004 11.6025Z" fill="#25D04E"/>
<path d="M-27.11 164.723C-11.02 176.363 8.80997 181.942 28.73 180.442C48.86 178.922 67.81 170.223 82.1 155.933C93.63 144.403 101.54 129.912 104.95 114.033C108.93 95.5325 106.57 76.0125 98.3 59.0725L100.46 58.0125C108.97 75.4325 111.4 95.5025 107.3 114.533C103.79 130.863 95.66 145.763 83.79 157.623C69.09 172.323 49.6 181.272 28.89 182.832C8.40996 184.372 -11.99 178.633 -28.54 166.663L-27.11 164.723Z" fill="#25D04E"/>
<path d="M-22.0499 51.7725C2.43005 27.2925 42.2601 27.2925 66.7401 51.7725C76.6501 61.6825 82.83 74.2425 84.61 88.1025L82.22 88.4125C80.5 75.0825 74.56 63.0125 65.03 53.4825C41.49 29.9425 3.19005 29.9425 -20.3499 53.4825C-24.5299 57.6625 -28.05 62.3925 -30.83 67.5425L-32.95 66.4025C-30.06 61.0325 -26.3999 56.1225 -22.0499 51.7725Z" fill="#25D04E"/>
<path d="M-40.38 93.4125L-37.97 93.5125C-38.71 110.392 -32.28 126.913 -20.35 138.853C-11.94 147.263 -1.37001 152.953 10.23 155.313L9.74998 157.673C-2.31002 155.213 -13.31 149.293 -22.05 140.553C-34.47 128.143 -41.15 110.963 -40.38 93.4125Z" fill="#25D04E"/>
<path d="M29.2 156.152C42.88 154.592 55.27 148.613 65.03 138.863C73.58 130.313 79.32 119.532 81.61 107.702L83.97 108.163C81.59 120.463 75.63 131.673 66.7299 140.563C56.58 150.713 43.7 156.923 29.47 158.543L29.2 156.152Z" fill="#25D04E"/>
<path d="M-14.43 59.4025C-8.45003 53.4225 -1.05003 48.9525 6.96997 46.4825L7.31997 47.6325C-0.520035 50.0525 -7.75003 54.4125 -13.59 60.2525C-29.71 76.3725 -33.11 101.453 -21.86 121.243L-22.91 121.832C-34.41 101.572 -30.93 75.9025 -14.43 59.4025Z" fill="#25D04E"/>
<path d="M22.33 44.1725C36.22 44.1725 49.28 49.5825 59.11 59.4025C79.38 79.6725 79.38 112.663 59.11 132.933C38.84 153.203 5.84996 153.203 -14.42 132.933L-13.57 132.082C6.22995 151.882 38.4599 151.882 58.2599 132.082C78.06 112.282 78.06 80.0525 58.2599 60.2525C48.66 50.6525 35.91 45.3725 22.34 45.3725V44.1725H22.33Z" fill="#25D04E"/>
<path d="M-0.529957 73.3025C12.08 60.6925 32.6 60.6925 45.21 73.3025C57.82 85.9125 57.82 106.433 45.21 119.043L43.51 117.343C55.18 105.673 55.18 86.6825 43.51 75.0025C31.84 63.3325 12.85 63.3325 1.18004 75.0025C-10.49 86.6725 -10.49 105.662 1.18004 117.333L-0.519955 119.033C-13.14 106.423 -13.14 85.9125 -0.529957 73.3025Z" fill="#25D04E"/>
<path d="M10.97 84.8025C17.24 78.5325 27.44 78.5325 33.7 84.8025L32.85 85.6525C27.05 79.8525 17.62 79.8525 11.82 85.6525C6.02002 91.4525 6.02002 100.883 11.82 106.683C17.62 112.483 27.05 112.483 32.85 106.683C36.07 103.463 37.62 99.0225 37.11 94.4925L38.31 94.3525C38.86 99.2425 37.18 104.052 33.7 107.532C27.43 113.802 17.23 113.802 10.97 107.532C4.71002 101.262 4.71002 91.0725 10.97 84.8025Z" fill="#25D04E"/>
<path d="M1321 408.123L1322.19 407.962C1324.99 428.702 1334.32 447.513 1349.16 462.353C1372.15 485.343 1404.87 494.933 1436.68 487.993L1436.94 489.173C1404.73 496.203 1371.6 486.492 1348.32 463.212C1333.28 448.172 1323.84 429.123 1321 408.123Z" fill="#25D04E"/>
<path d="M1348.31 327.132C1385.82 289.623 1446.86 289.623 1484.37 327.132C1521.88 364.643 1521.88 425.682 1484.37 463.192L1483.52 462.342C1520.56 425.302 1520.56 365.023 1483.52 327.983C1446.48 290.943 1386.2 290.943 1349.16 327.983C1337.97 339.173 1329.69 353.062 1325.24 368.142L1324.09 367.802C1328.6 352.532 1336.97 338.472 1348.31 327.132Z" fill="#25D04E"/>
<path d="M1396.17 310.602C1425.79 303.562 1456.31 312.203 1477.81 333.703L1476.11 335.402C1455.21 314.502 1425.53 306.102 1396.73 312.942L1396.17 310.602Z" fill="#25D04E"/>
<path d="M1354.88 333.703C1361.62 326.963 1369.32 321.423 1377.79 317.233L1378.86 319.392C1370.63 323.462 1363.14 328.852 1356.59 335.402C1325.8 366.192 1323.31 414.812 1350.79 448.502L1348.93 450.022C1320.65 415.382 1323.21 365.373 1354.88 333.703Z" fill="#25D04E"/>
<path d="M1366.89 463.723C1382.98 475.363 1402.81 480.942 1422.73 479.442C1442.86 477.922 1461.81 469.223 1476.1 454.933C1487.63 443.403 1495.54 428.912 1498.95 413.033C1502.93 394.533 1500.57 375.013 1492.3 358.073L1494.46 357.013C1502.97 374.433 1505.4 394.503 1501.3 413.533C1497.79 429.863 1489.66 444.763 1477.79 456.623C1463.09 471.323 1443.6 480.272 1422.89 481.832C1402.41 483.372 1382.01 477.633 1365.46 465.663L1366.89 463.723Z" fill="#25D04E"/>
<path d="M1371.95 350.773C1396.43 326.293 1436.26 326.293 1460.74 350.773C1470.65 360.683 1476.83 373.243 1478.61 387.103L1476.22 387.413C1474.5 374.083 1468.56 362.013 1459.03 352.483C1435.49 328.943 1397.19 328.943 1373.65 352.483C1369.47 356.663 1365.95 361.393 1363.17 366.543L1361.05 365.403C1363.94 360.033 1367.6 355.123 1371.95 350.773Z" fill="#25D04E"/>
<path d="M1353.62 392.413L1356.03 392.512C1355.29 409.392 1361.72 425.913 1373.65 437.853C1382.06 446.263 1392.63 451.953 1404.23 454.313L1403.75 456.673C1391.69 454.213 1380.69 448.293 1371.95 439.553C1359.53 427.143 1352.85 409.963 1353.62 392.413Z" fill="#25D04E"/>
<path d="M1423.2 455.152C1436.88 453.592 1449.27 447.613 1459.03 437.863C1467.58 429.313 1473.32 418.532 1475.61 406.702L1477.97 407.163C1475.59 419.463 1469.63 430.673 1460.73 439.563C1450.58 449.713 1437.7 455.923 1423.47 457.543L1423.2 455.152Z" fill="#25D04E"/>
<path d="M1379.57 358.402C1385.55 352.422 1392.95 347.953 1400.97 345.483L1401.32 346.633C1393.48 349.053 1386.25 353.413 1380.41 359.253C1364.29 375.373 1360.89 400.453 1372.14 420.243L1371.09 420.832C1359.59 400.572 1363.07 374.902 1379.57 358.402Z" fill="#25D04E"/>
<path d="M1416.33 343.173C1430.22 343.173 1443.28 348.582 1453.11 358.402C1473.38 378.672 1473.38 411.663 1453.11 431.933C1432.84 452.203 1399.85 452.203 1379.58 431.933L1380.43 431.082C1400.23 450.882 1432.46 450.882 1452.26 431.082C1472.06 411.282 1472.06 379.053 1452.26 359.253C1442.66 349.653 1429.91 344.372 1416.34 344.372V343.173H1416.33Z" fill="#25D04E"/>
<path d="M1393.47 372.303C1406.08 359.693 1426.6 359.693 1439.21 372.303C1451.82 384.913 1451.82 405.433 1439.21 418.043L1437.51 416.343C1449.18 404.673 1449.18 385.682 1437.51 374.002C1425.84 362.332 1406.85 362.332 1395.18 374.002C1383.51 385.672 1383.51 404.662 1395.18 416.333L1393.48 418.033C1380.86 405.423 1380.86 384.913 1393.47 372.303Z" fill="#25D04E"/>
<path d="M1404.97 383.803C1411.24 377.533 1421.44 377.533 1427.7 383.803L1426.85 384.652C1421.05 378.852 1411.62 378.852 1405.82 384.652C1400.02 390.452 1400.02 399.883 1405.82 405.683C1411.62 411.483 1421.05 411.483 1426.85 405.683C1430.07 402.463 1431.62 398.023 1431.11 393.493L1432.31 393.352C1432.86 398.242 1431.18 403.052 1427.7 406.532C1421.43 412.802 1411.23 412.802 1404.97 406.532C1398.71 400.262 1398.71 390.073 1404.97 383.803Z" fill="#25D04E"/>
<path d="M362.74 90.37C362.74 93.34 360.34 95.74 357.37 95.74C354.4 95.74 352 93.34 352 90.37C352 87.4 354.4 85 357.37 85C360.34 85 362.74 87.41 362.74 90.37Z" fill="#25D04E"/>
<path d="M1023.74 84.37C1023.74 87.34 1021.34 89.74 1018.37 89.74C1015.4 89.74 1013 87.34 1013 84.37C1013 81.4 1015.4 79 1018.37 79C1021.34 79 1023.74 81.41 1023.74 84.37Z" fill="#25D04E"/>
<path d="M1167.74 266.37C1167.74 269.34 1165.34 271.74 1162.37 271.74C1159.4 271.74 1157 269.34 1157 266.37C1157 263.4 1159.4 261 1162.37 261C1165.34 261 1167.74 263.41 1167.74 266.37Z" fill="#25D04E"/>
<path d="M647.74 416.37C647.74 419.34 645.34 421.74 642.37 421.74C639.4 421.74 637 419.34 637 416.37C637 413.4 639.4 411 642.37 411C645.34 411 647.74 413.41 647.74 416.37Z" fill="#25D04E"/>
</svg>
