<svg width="1440" height="546" viewBox="0 0 1440 546" fill="none" xmlns="http://www.w3.org/2000/svg">
<rect width="1440" height="566" fill="url(#paint0_linear)"/>
<path d="M690.84 180.03L697.68 186.86L699.69 184.85L690.84 176L682 184.85L684.01 186.86L690.84 180.03Z" fill="#25D04E"/>
<path d="M690.84 191.96L697.68 198.79L699.69 196.78L690.84 187.93L682 196.78L684.01 198.79L690.84 191.96Z" fill="#25D04E"/>
<path d="M690.84 204.03L697.68 210.87L699.69 208.85L690.84 200.01L682 208.85L684.01 210.87L690.84 204.03Z" fill="#25D04E"/>
<path d="M690.84 156.03L697.68 162.86L699.69 160.85L690.84 152L682 160.85L684.01 162.86L690.84 156.03Z" fill="#25D04E"/>
<path d="M690.84 167.96L697.68 174.79L699.69 172.78L690.84 163.93L682 172.78L684.01 174.79L690.84 167.96Z" fill="#25D04E"/>
<path d="M1134.84 480.03L1141.68 486.86L1143.69 484.85L1134.84 476L1126 484.85L1128.01 486.86L1134.84 480.03Z" fill="#25D04E"/>
<path d="M1134.84 491.96L1141.68 498.79L1143.69 496.78L1134.84 487.93L1126 496.78L1128.01 498.79L1134.84 491.96Z" fill="#25D04E"/>
<path d="M1134.84 504.03L1141.68 510.87L1143.69 508.85L1134.84 500.01L1126 508.85L1128.01 510.87L1134.84 504.03Z" fill="#25D04E"/>
<path d="M1134.84 456.03L1141.68 462.86L1143.69 460.85L1134.84 452L1126 460.85L1128.01 462.86L1134.84 456.03Z" fill="#25D04E"/>
<path d="M1134.84 467.96L1141.68 474.79L1143.69 472.78L1134.84 463.93L1126 472.78L1128.01 474.79L1134.84 467.96Z" fill="#25D04E"/>
<path d="M136.84 174.03L143.68 180.86L145.69 178.85L136.84 170L128 178.85L130.01 180.86L136.84 174.03Z" fill="#25D04E"/>
<path d="M136.84 185.96L143.68 192.79L145.69 190.78L136.84 181.93L128 190.78L130.01 192.79L136.84 185.96Z" fill="#25D04E"/>
<path d="M136.84 198.03L143.68 204.87L145.69 202.85L136.84 194.01L128 202.85L130.01 204.87L136.84 198.03Z" fill="#25D04E"/>
<path d="M136.84 150.03L143.68 156.86L145.69 154.85L136.84 146L128 154.85L130.01 156.86L136.84 150.03Z" fill="#25D04E"/>
<path d="M136.84 161.96L143.68 168.79L145.69 166.78L136.84 157.93L128 166.78L130.01 168.79L136.84 161.96Z" fill="#25D04E"/>
<path d="M378.82 416.37L395.38 399.81C392.44 401.49 389.71 403.5 387.24 405.78L384.79 408.23C382.51 410.71 380.5 413.43 378.82 416.37Z" fill="#25D04E"/>
<path d="M373.88 429.53L408.54 394.87C407.58 395.06 406.64 395.29 405.7 395.54L374.55 426.69C374.29 427.63 374.07 428.58 373.88 429.53Z" fill="#25D04E"/>
<path d="M373 438.34C373 438.43 373 438.53 373 438.62L417.62 394C417.53 394 417.43 394 417.34 394C416.7 394 416.05 394.02 415.42 394.04L373.04 436.42C373.02 437.06 373 437.7 373 438.34Z" fill="#25D04E"/>
<path d="M373.69 446.16L425.16 394.69C424.54 394.58 423.91 394.48 423.29 394.4L373.4 444.29C373.48 444.91 373.58 445.54 373.69 446.16Z" fill="#25D04E"/>
<path d="M375.37 452.69L431.69 396.37C431.15 396.18 430.6 396.01 430.05 395.85L374.85 451.05C375.01 451.6 375.19 452.15 375.37 452.69Z" fill="#25D04E"/>
<path d="M377.82 458.46L437.47 398.81C436.99 398.56 436.5 398.33 436.01 398.1L377.11 457C377.34 457.5 377.57 457.98 377.82 458.46Z" fill="#25D04E"/>
<path d="M380.9 463.6L442.61 401.89C442.18 401.59 441.75 401.3 441.31 401.02L380.03 462.3C380.31 462.75 380.6 463.18 380.9 463.6Z" fill="#25D04E"/>
<path d="M384.54 468.18L447.18 405.54C446.8 405.2 446.42 404.86 446.03 404.53L383.53 467.03C383.86 467.42 384.19 467.8 384.54 468.18Z" fill="#25D04E"/>
<path d="M388.72 472.21L451.21 409.72C450.88 409.33 450.54 408.94 450.2 408.56L387.56 471.2C387.95 471.55 388.33 471.88 388.72 472.21Z" fill="#25D04E"/>
<path d="M393.45 475.71L454.71 414.45C454.43 414.01 454.14 413.58 453.84 413.15L392.15 474.84C392.58 475.13 393.01 475.42 393.45 475.71Z" fill="#25D04E"/>
<path d="M398.76 478.61L457.61 419.76C457.38 419.27 457.15 418.78 456.9 418.3L397.29 477.91C397.78 478.15 398.27 478.39 398.76 478.61Z" fill="#25D04E"/>
<path d="M404.73 480.86L459.87 425.72C459.71 425.17 459.53 424.62 459.35 424.08L403.09 480.34C403.62 480.53 404.17 480.7 404.73 480.86Z" fill="#25D04E"/>
<path d="M411.5 482.3L461.3 432.5C461.22 431.87 461.12 431.24 461.01 430.62L409.62 482.01C410.25 482.13 410.87 482.22 411.5 482.3Z" fill="#25D04E"/>
<path d="M417.34 482.69C418.03 482.69 418.71 482.67 419.38 482.64L461.63 440.39C461.66 439.71 461.68 439.03 461.68 438.35C461.68 438.29 461.68 438.24 461.68 438.18L417.17 482.69C417.23 482.69 417.29 482.69 417.34 482.69Z" fill="#25D04E"/>
<path d="M429.15 481.1L460.1 450.15C460.36 449.21 460.59 448.26 460.79 447.3L426.3 481.79C427.26 481.59 428.21 481.35 429.15 481.1Z" fill="#25D04E"/>
<path d="M455.71 460.59L439.58 476.72C446.26 472.83 451.83 467.26 455.71 460.59Z" fill="#25D04E"/>
<path d="M801.82 261.37L818.38 244.81C815.44 246.49 812.71 248.5 810.24 250.78L807.79 253.23C805.51 255.71 803.5 258.43 801.82 261.37Z" fill="#25D04E"/>
<path d="M796.88 274.53L831.54 239.87C830.58 240.06 829.64 240.29 828.7 240.54L797.55 271.69C797.29 272.63 797.07 273.58 796.88 274.53Z" fill="#25D04E"/>
<path d="M796 283.34C796 283.43 796 283.53 796 283.62L840.62 239C840.53 239 840.43 239 840.34 239C839.7 239 839.05 239.02 838.42 239.04L796.04 281.42C796.02 282.06 796 282.7 796 283.34Z" fill="#25D04E"/>
<path d="M796.69 291.16L848.16 239.69C847.54 239.58 846.91 239.48 846.29 239.4L796.4 289.29C796.48 289.91 796.58 290.54 796.69 291.16Z" fill="#25D04E"/>
<path d="M798.37 297.69L854.69 241.37C854.15 241.18 853.6 241.01 853.05 240.85L797.85 296.05C798.01 296.6 798.19 297.15 798.37 297.69Z" fill="#25D04E"/>
<path d="M800.82 303.46L860.47 243.81C859.99 243.56 859.5 243.33 859.01 243.1L800.11 302C800.34 302.5 800.57 302.98 800.82 303.46Z" fill="#25D04E"/>
<path d="M803.9 308.6L865.61 246.89C865.18 246.59 864.75 246.3 864.31 246.02L803.03 307.3C803.31 307.75 803.6 308.18 803.9 308.6Z" fill="#25D04E"/>
<path d="M807.54 313.18L870.18 250.54C869.8 250.2 869.42 249.86 869.03 249.53L806.53 312.03C806.86 312.42 807.19 312.8 807.54 313.18Z" fill="#25D04E"/>
<path d="M811.72 317.21L874.21 254.72C873.88 254.33 873.54 253.94 873.2 253.56L810.56 316.2C810.95 316.55 811.33 316.88 811.72 317.21Z" fill="#25D04E"/>
<path d="M816.45 320.71L877.71 259.45C877.43 259.01 877.14 258.58 876.84 258.15L815.15 319.84C815.58 320.13 816.01 320.42 816.45 320.71Z" fill="#25D04E"/>
<path d="M821.76 323.61L880.61 264.76C880.38 264.27 880.15 263.78 879.9 263.3L820.29 322.91C820.78 323.15 821.27 323.39 821.76 323.61Z" fill="#25D04E"/>
<path d="M827.73 325.86L882.87 270.72C882.71 270.17 882.53 269.62 882.35 269.08L826.09 325.34C826.62 325.53 827.17 325.7 827.73 325.86Z" fill="#25D04E"/>
<path d="M834.5 327.3L884.3 277.5C884.22 276.87 884.12 276.24 884.01 275.62L832.62 327.01C833.25 327.13 833.87 327.22 834.5 327.3Z" fill="#25D04E"/>
<path d="M840.34 327.69C841.03 327.69 841.71 327.67 842.38 327.64L884.63 285.39C884.66 284.71 884.68 284.03 884.68 283.35C884.68 283.29 884.68 283.24 884.68 283.18L840.17 327.69C840.23 327.69 840.29 327.69 840.34 327.69Z" fill="#25D04E"/>
<path d="M852.15 326.1L883.1 295.15C883.36 294.21 883.59 293.26 883.79 292.3L849.3 326.79C850.26 326.59 851.21 326.35 852.15 326.1Z" fill="#25D04E"/>
<path d="M878.71 305.59L862.58 321.72C869.26 317.83 874.83 312.26 878.71 305.59Z" fill="#25D04E"/>
<path d="M1260.82 103.37L1277.38 86.81C1274.44 88.49 1271.71 90.5 1269.24 92.78L1266.79 95.23C1264.51 97.71 1262.5 100.43 1260.82 103.37Z" fill="#25D04E"/>
<path d="M1255.88 116.53L1290.54 81.87C1289.58 82.06 1288.64 82.29 1287.7 82.54L1256.55 113.69C1256.29 114.63 1256.07 115.58 1255.88 116.53Z" fill="#25D04E"/>
<path d="M1255 125.34C1255 125.43 1255 125.53 1255 125.62L1299.62 81C1299.53 81 1299.43 81 1299.34 81C1298.7 81 1298.05 81.02 1297.42 81.04L1255.04 123.42C1255.02 124.06 1255 124.7 1255 125.34Z" fill="#25D04E"/>
<path d="M1255.69 133.16L1307.16 81.69C1306.54 81.58 1305.91 81.48 1305.29 81.4L1255.4 131.29C1255.48 131.91 1255.58 132.54 1255.69 133.16Z" fill="#25D04E"/>
<path d="M1257.37 139.69L1313.69 83.37C1313.15 83.18 1312.6 83.01 1312.05 82.85L1256.85 138.05C1257.01 138.6 1257.19 139.15 1257.37 139.69Z" fill="#25D04E"/>
<path d="M1259.82 145.46L1319.47 85.81C1318.99 85.56 1318.5 85.33 1318.01 85.1L1259.11 144C1259.34 144.5 1259.57 144.98 1259.82 145.46Z" fill="#25D04E"/>
<path d="M1262.9 150.6L1324.61 88.89C1324.18 88.59 1323.75 88.3 1323.31 88.02L1262.03 149.3C1262.31 149.75 1262.6 150.18 1262.9 150.6Z" fill="#25D04E"/>
<path d="M1266.54 155.18L1329.18 92.54C1328.8 92.2 1328.42 91.86 1328.03 91.53L1265.53 154.03C1265.86 154.42 1266.19 154.8 1266.54 155.18Z" fill="#25D04E"/>
<path d="M1270.72 159.21L1333.21 96.72C1332.88 96.33 1332.54 95.94 1332.2 95.56L1269.56 158.2C1269.95 158.55 1270.33 158.88 1270.72 159.21Z" fill="#25D04E"/>
<path d="M1275.45 162.71L1336.71 101.45C1336.43 101.01 1336.14 100.58 1335.84 100.15L1274.15 161.84C1274.58 162.13 1275.01 162.42 1275.45 162.71Z" fill="#25D04E"/>
<path d="M1280.76 165.61L1339.61 106.76C1339.38 106.27 1339.15 105.78 1338.9 105.3L1279.29 164.91C1279.78 165.15 1280.27 165.39 1280.76 165.61Z" fill="#25D04E"/>
<path d="M1286.73 167.86L1341.87 112.72C1341.71 112.17 1341.53 111.62 1341.35 111.08L1285.09 167.34C1285.62 167.53 1286.17 167.7 1286.73 167.86Z" fill="#25D04E"/>
<path d="M1293.5 169.3L1343.3 119.5C1343.22 118.87 1343.12 118.24 1343.01 117.62L1291.62 169.01C1292.25 169.13 1292.87 169.22 1293.5 169.3Z" fill="#25D04E"/>
<path d="M1299.34 169.69C1300.03 169.69 1300.71 169.67 1301.38 169.64L1343.63 127.39C1343.66 126.71 1343.68 126.03 1343.68 125.35C1343.68 125.29 1343.68 125.24 1343.68 125.18L1299.17 169.69C1299.23 169.69 1299.29 169.69 1299.34 169.69Z" fill="#25D04E"/>
<path d="M1311.15 168.1L1342.1 137.15C1342.36 136.21 1342.59 135.26 1342.79 134.3L1308.3 168.79C1309.26 168.59 1310.21 168.35 1311.15 168.1Z" fill="#25D04E"/>
<path d="M1337.71 147.59L1321.58 163.72C1328.26 159.83 1333.83 154.26 1337.71 147.59Z" fill="#25D04E"/>
<defs>
<linearGradient id="paint0_linear" x1="74.6317" y1="587.378" x2="388.491" y2="-283.955" gradientUnits="userSpaceOnUse">
<stop stop-color="#368966"/>
<stop offset="1" stop-color="#3DA871"/>
</linearGradient>
</defs>
</svg>
